<?xml version="1.0" standalone="no"?>
<!DOCTYPE svg PUBLIC "-//W3C//DTD SVG 20010904//EN"
 "http://www.w3.org/TR/2001/REC-SVG-20010904/DTD/svg10.dtd">
<svg version="1.0" xmlns="http://www.w3.org/2000/svg"
 width="200.000000pt" height="200.000000pt" viewBox="0 0 200.000000 200.000000"
 preserveAspectRatio="xMidYMid meet">
<metadata>
Created by potrace 1.14, written by Peter Selinger 2001-2017
</metadata>
<g transform="translate(0.000000,200.000000) scale(0.100000,-0.100000)"
fill="#000000" stroke="none">
<path d="M930 1992 c0 -17 37 -42 61 -42 l24 1 -28 24 c-28 25 -57 33 -57 17z"/>
<path d="M1006 1979 c27 -30 54 -43 66 -31 12 12 -37 52 -65 52 -20 0 -20 0
-1 -21z"/>
<path d="M1070 1991 c0 -17 33 -51 51 -51 25 0 24 12 -1 35 -22 19 -50 29 -50
16z"/>
<path d="M883 1965 c28 -25 57 -33 57 -17 0 17 -37 42 -61 42 l-24 -1 28 -24z"/>
<path d="M1140 1976 c0 -8 12 -24 26 -35 47 -37 61 -22 19 23 -27 29 -45 34
-45 12z"/>
<path d="M812 1956 c18 -16 35 -22 48 -19 20 5 20 7 4 24 -10 11 -30 19 -48
19 l-31 -1 27 -23z"/>
<path d="M1207 1973 c-10 -9 32 -63 49 -63 17 0 17 5 4 30 -12 22 -44 42 -53
33z"/>
<path d="M730 1957 c0 -8 11 -19 25 -25 52 -24 75 -7 33 22 -28 20 -58 21 -58
3z"/>
<path d="M1270 1951 c0 -17 46 -64 58 -60 16 6 -23 69 -43 69 -8 0 -15 -4 -15
-9z"/>
<path d="M667 1943 c-14 -13 17 -33 52 -33 l36 1 -24 19 c-23 20 -52 26 -64
13z"/>
<path d="M1340 1930 c0 -18 23 -59 36 -64 22 -9 24 9 4 42 -19 31 -40 43 -40
22z"/>
<path d="M603 1915 c-16 -12 -15 -14 17 -23 59 -15 85 7 31 26 -22 8 -34 7
-48 -3z"/>
<path d="M1406 1888 c8 -29 34 -59 45 -52 10 6 -8 56 -24 66 -21 14 -29 9 -21
-14z"/>
<path d="M539 1890 c-15 -10 -14 -12 21 -26 27 -11 60 -8 60 6 0 19 -59 33
-81 20z"/>
<path d="M1021 1869 c-21 -20 -23 -20 -42 -3 -24 21 -32 15 -20 -17 7 -20 4
-27 -18 -41 l-26 -18 32 0 c26 0 34 -5 39 -25 3 -14 10 -25 14 -25 4 0 11 11
14 25 5 20 13 25 38 25 l31 0 -26 20 c-23 18 -25 25 -16 47 13 34 7 37 -20 12z"/>
<path d="M1464 1864 c3 -9 6 -22 6 -29 0 -8 9 -19 20 -25 17 -9 20 -8 20 14 0
25 -23 56 -42 56 -5 0 -7 -7 -4 -16z"/>
<path d="M484 1856 c-16 -12 -14 -14 12 -23 31 -10 64 -7 64 7 0 17 -58 29
-76 16z"/>
<path d="M1528 1843 c-10 -16 13 -73 28 -73 13 0 15 6 9 28 -7 30 -30 58 -37
45z"/>
<path d="M690 1816 c-12 -23 -19 -27 -42 -22 -32 6 -35 0 -12 -25 15 -17 15
-20 0 -44 -18 -28 -15 -30 16 -14 16 9 24 7 44 -12 l24 -22 0 30 c0 23 7 33
28 43 l27 13 -30 6 c-25 5 -31 12 -35 40 l-5 34 -15 -27z"/>
<path d="M1285 1808 c0 -29 -4 -33 -27 -36 -35 -4 -36 -18 -3 -26 20 -5 25
-13 25 -39 l1 -32 18 23 c16 19 23 21 46 12 37 -14 38 -13 20 14 -15 23 -15
27 1 51 l17 26 -28 -7 c-22 -5 -31 -2 -49 20 l-21 27 0 -33z"/>
<path d="M426 1819 c-15 -9 -16 -13 -5 -20 20 -12 67 -11 74 2 9 13 6 16 -25
23 -14 3 -33 1 -44 -5z"/>
<path d="M1580 1782 c0 -16 9 -37 20 -47 20 -18 20 -17 20 13 0 26 -21 62 -36
62 -2 0 -4 -13 -4 -28z"/>
<path d="M377 1779 c-9 -6 -15 -14 -12 -20 10 -14 61 -11 75 6 10 12 10 15 -3
15 -8 0 -21 2 -29 5 -7 2 -21 0 -31 -6z"/>
<path d="M1633 1731 c9 -53 37 -73 37 -27 0 35 -10 56 -27 56 -10 0 -13 -8
-10 -29z"/>
<path d="M332 1739 c-33 -13 -26 -29 12 -29 42 0 68 25 33 32 -13 3 -34 1 -45
-3z"/>
<path d="M1690 1720 c-11 -51 -2 -90 20 -90 15 0 12 54 -5 76 -8 10 -15 17
-15 14z"/>
<path d="M277 1689 c-26 -15 -21 -29 11 -29 24 0 77 26 62 31 -24 7 -58 6 -73
-2z"/>
<path d="M938 1685 c-2 -2 -23 -6 -48 -9 -180 -24 -360 -143 -465 -306 -78
-122 -108 -223 -108 -370 -1 -214 92 -405 259 -536 274 -216 662 -193 908 52
196 196 255 493 149 749 -37 89 -115 193 -199 265 -74 64 -207 127 -309 145
-41 8 -181 15 -187 10z m265 -49 c105 -35 192 -89 268 -166 136 -138 202 -303
195 -490 -4 -106 -19 -163 -66 -265 -110 -239 -353 -388 -617 -380 -313 10
-557 214 -638 530 -26 101 -7 287 40 399 85 200 292 362 504 396 91 15 231 4
314 -24z"/>
<path d="M1097 1625 c-14 -48 -19 -95 -9 -95 6 0 14 20 17 44 8 49 2 84 -8 51z"/>
<path d="M927 1623 c-18 -5 -18 -8 -7 -80 1 -9 50 -1 50 7 0 6 -7 10 -15 10
-21 0 -19 20 3 21 11 1 9 4 -8 9 l-25 8 22 7 c13 4 20 11 17 16 -5 9 -8 10
-37 2z"/>
<path d="M994 1619 c-3 -5 2 -9 11 -9 11 0 14 -7 10 -29 -3 -17 -1 -33 5 -36
10 -6 11 -3 14 37 0 12 7 23 14 26 22 7 13 17 -18 18 -17 1 -33 -2 -36 -7z"/>
<path d="M850 1594 c0 -14 -3 -14 -15 -4 -25 21 -30 2 -7 -23 12 -13 22 -29
22 -35 0 -7 5 -12 11 -12 7 0 9 9 6 21 -3 12 -2 32 3 45 7 19 6 24 -5 24 -8 0
-15 -7 -15 -16z"/>
<path d="M762 1568 c5 -18 12 -41 15 -50 6 -19 23 -25 23 -8 0 18 -32 90 -40
90 -5 0 -4 -15 2 -32z"/>
<path d="M1184 1575 c-4 -9 -2 -21 5 -28 18 -18 13 -26 -11 -19 -21 5 -22 4
-9 -11 17 -21 25 -21 46 -1 15 15 15 18 -2 36 -16 18 -16 20 -1 17 9 -2 18 1
20 6 5 18 -42 18 -48 0z"/>
<path d="M695 1548 c-11 -6 -21 -12 -23 -14 -6 -4 27 -62 40 -70 8 -5 9 0 6
14 -7 25 -4 26 23 12 22 -13 26 2 4 20 -8 7 -13 16 -10 20 10 16 -20 29 -40
18z m20 -17 c3 -5 1 -12 -5 -16 -5 -3 -10 1 -10 9 0 18 6 21 15 7z"/>
<path d="M1262 1522 c-18 -15 -29 -31 -26 -35 4 -4 13 -2 21 5 11 9 15 7 20
-10 7 -28 21 -28 28 1 15 72 6 80 -43 39z"/>
<path d="M875 1496 c-269 -66 -441 -360 -366 -628 59 -214 247 -364 468 -374
276 -12 511 196 530 471 24 342 -298 613 -632 531z m255 -22 c219 -64 360
-251 360 -475 0 -275 -224 -494 -498 -488 -374 9 -598 397 -421 730 54 101
165 191 282 229 70 23 207 25 277 4z"/>
<path d="M977 1403 c3 -7 0 -13 -7 -13 -6 0 -8 -5 -5 -10 4 -6 11 -8 16 -5 5
4 9 -1 9 -9 0 -9 3 -16 6 -16 13 0 30 26 30 46 0 16 -7 21 -27 21 -19 0 -25
-5 -22 -14z"/>
<path d="M912 1298 c-24 -90 66 -154 144 -103 29 19 43 62 32 103 -11 42 -25
41 -20 -2 3 -25 -2 -40 -17 -55 -47 -47 -126 -9 -119 57 2 17 1 32 -4 32 -4 0
-11 -15 -16 -32z"/>
<path d="M560 1158 c0 -4 11 -15 25 -24 26 -17 110 -21 210 -10 31 4 44 2 35
-3 -8 -5 -53 -12 -100 -16 -91 -8 -133 -12 -139 -14 -2 -1 4 -9 13 -20 13 -15
27 -18 64 -14 26 2 61 8 77 13 52 16 118 29 109 21 -5 -4 -45 -18 -89 -30
-117 -33 -109 -29 -95 -46 18 -22 48 -18 119 15 35 17 65 29 67 27 2 -2 -26
-19 -61 -38 -36 -19 -65 -37 -65 -41 0 -20 60 -4 106 27 46 32 53 34 83 24 24
-9 35 -9 44 0 8 8 7 11 -6 11 -18 0 -41 35 -32 49 11 18 -19 61 -49 71 -36 11
-316 10 -316 -2z"/>
<path d="M1122 1159 c-32 -10 -58 -48 -49 -73 6 -17 -12 -46 -28 -46 -8 0 -15
-4 -15 -10 0 -13 21 -13 55 0 22 8 34 5 78 -25 46 -31 107 -47 107 -27 0 4
-29 22 -65 41 -36 18 -64 35 -62 38 2 2 27 -8 56 -22 60 -31 110 -40 131 -25
21 14 5 23 -97 50 -109 30 -116 43 -10 19 126 -27 138 -29 159 -18 19 10 20
34 2 35 -30 1 -192 17 -207 19 -39 7 -28 14 14 9 96 -11 199 -6 224 10 14 9
25 20 25 24 0 12 -279 12 -318 1z"/>
<path d="M976 1124 c-19 -19 -20 -36 -4 -52 7 -7 13 -42 15 -80 1 -37 2 -75 2
-84 1 -10 6 -18 11 -18 6 0 10 32 10 76 0 53 5 84 17 105 16 27 16 29 -2 49
-22 24 -29 25 -49 4z"/>
<path d="M898 994 c-32 -17 -40 -37 -28 -68 12 -32 44 -54 110 -73 71 -20 75
-23 54 -37 -16 -12 -15 -13 5 -19 12 -3 28 1 36 10 19 18 19 22 0 44 -15 15
-14 17 7 22 33 9 61 59 49 90 -15 38 -66 50 -95 21 -26 -25 -19 -35 22 -32 46
4 50 -15 9 -46 -37 -27 -95 -26 -137 4 -37 26 -34 45 6 46 44 2 45 3 35 23
-14 25 -42 31 -73 15z"/>
<path d="M923 853 c-7 -3 -13 -13 -13 -24 0 -18 11 -24 110 -67 14 -6 19 -11
12 -11 -21 -1 -3 -21 19 -21 13 0 19 7 19 24 0 19 -8 27 -34 36 -27 8 -33 15
-29 30 3 11 0 20 -6 20 -6 0 -11 -7 -11 -16 0 -11 -5 -14 -16 -10 -9 3 -18 6
-21 6 -3 0 0 6 6 14 9 11 8 15 -6 18 -10 3 -24 3 -30 1z"/>
<path d="M937 773 c-13 -12 -7 -44 9 -50 8 -3 13 -12 10 -19 -3 -7 10 -22 30
-35 28 -17 33 -25 28 -42 -6 -20 -5 -20 10 -8 11 9 16 24 13 38 -2 13 0 26 4
29 16 10 9 33 -11 39 -11 3 -20 13 -20 21 0 8 -5 14 -11 14 -5 0 -7 -4 -4 -10
3 -5 -1 -10 -10 -10 -11 0 -15 5 -12 14 3 8 -1 17 -9 20 -19 7 -19 7 -27 -1z
m73 -73 c8 -5 12 -11 10 -14 -3 -2 -14 2 -24 10 -22 15 -10 19 14 4z"/>
<path d="M965 659 c-4 -5 1 -22 11 -37 10 -15 17 -39 15 -54 -1 -16 2 -28 7
-28 6 0 9 12 7 26 -2 18 2 24 11 20 21 -8 17 3 -8 25 -13 10 -17 18 -10 19 18
0 15 14 -8 27 -13 8 -21 9 -25 2z"/>
<path d="M1394 1495 c4 -12 2 -13 -12 -6 -11 6 -23 5 -33 -2 -26 -20 -29 -43
-7 -67 19 -20 21 -21 39 -4 15 13 17 20 8 28 -8 8 -13 7 -16 -1 -7 -20 -23
-15 -23 6 0 25 25 34 41 14 12 -13 14 -13 20 4 7 21 1 43 -13 43 -6 0 -8 -7
-4 -15z"/>
<path d="M620 1491 c0 -5 7 -14 15 -21 15 -13 21 -40 8 -40 -4 0 -17 10 -30
22 -31 29 -39 18 -12 -16 14 -17 29 -26 43 -24 27 4 33 43 10 69 -18 20 -34
25 -34 10z"/>
<path d="M546 1405 c6 -24 4 -25 -20 -19 -33 8 -33 -1 2 -31 34 -31 64 -35 37
-5 -17 19 -17 20 1 27 10 4 19 2 22 -5 2 -7 8 -9 14 -6 10 6 -39 64 -54 64 -5
0 -6 -11 -2 -25z"/>
<path d="M1417 1402 c-27 -28 -27 -29 -8 -46 11 -10 22 -13 25 -8 3 6 0 12 -6
15 -9 3 -6 12 10 29 41 45 21 54 -21 10z"/>
<path d="M1468 1339 c-16 -11 -28 -25 -28 -30 0 -11 56 19 72 39 17 20 -13 14
-44 -9z"/>
<path d="M470 1321 c0 -10 7 -21 15 -25 8 -3 15 -1 15 5 0 6 7 6 19 -1 24 -12
31 -13 31 -2 0 7 -63 42 -75 42 -3 0 -5 -9 -5 -19z"/>
<path d="M1498 1297 c-34 -13 -38 -38 -5 -30 18 5 20 3 10 -8 -15 -15 -17 -39
-4 -39 5 0 12 9 16 19 3 11 17 22 33 24 26 4 26 4 4 12 -18 6 -20 10 -11 21
14 17 -2 17 -43 1z"/>
<path d="M444 1278 c-3 -5 -4 -10 -3 -12 46 -34 69 -45 69 -35 0 6 -8 17 -17
24 -15 11 -14 12 11 8 21 -4 27 -2 24 8 -5 15 -76 21 -84 7z"/>
<path d="M410 1213 c0 -5 14 -14 30 -20 38 -14 40 -36 3 -27 -16 4 -31 7 -34
8 -4 0 -8 -3 -9 -9 -1 -5 12 -14 29 -19 46 -13 82 24 48 52 -17 15 -67 26 -67
15z"/>
<path d="M1543 1173 c-24 -5 -30 -27 -14 -52 6 -9 18 -11 40 -6 36 8 45 18 36
45 -6 20 -17 22 -62 13z m47 -23 c0 -5 -4 -10 -10 -10 -5 0 -10 5 -10 10 0 6
5 10 10 10 6 0 10 -4 10 -10z m-30 -10 c0 -5 -4 -10 -10 -10 -5 0 -10 5 -10
10 0 6 5 10 10 10 6 0 10 -4 10 -10z"/>
<path d="M385 1106 c-11 -25 6 -50 35 -54 24 -4 50 20 50 45 0 21 -17 15 -23
-8 -8 -28 -39 -21 -48 11 -6 23 -7 23 -14 6z"/>
<path d="M1544 1066 c16 -13 17 -18 6 -31 -21 -25 -5 -28 39 -8 51 22 43 42
-20 49 -41 5 -43 4 -25 -10z m46 -16 c0 -5 -2 -10 -4 -10 -3 0 -8 5 -11 10 -3
6 -1 10 4 10 6 0 11 -4 11 -10z"/>
<path d="M440 969 c0 -22 0 -22 -15 -3 -13 17 -14 17 -15 2 0 -22 -20 -24 -20
-3 0 8 -4 15 -8 15 -5 0 -7 -12 -4 -28 3 -25 6 -27 43 -24 33 4 39 8 39 27 0
13 -4 27 -10 30 -6 3 -10 -4 -10 -16z"/>
<path d="M1540 980 c0 -4 7 -11 16 -14 14 -5 12 -9 -7 -26 -26 -21 -19 -26 12
-9 16 8 25 7 40 -7 15 -14 19 -14 19 -3 0 8 -5 20 -12 27 -9 9 -8 12 7 12 12
0 15 3 10 9 -13 12 -85 21 -85 11z"/>
<path d="M1535 880 c5 -15 1 -26 -12 -35 -16 -13 -13 -14 29 -15 26 0 49 4 52
9 6 9 -18 33 -52 51 -22 11 -23 10 -17 -10z m40 -30 c3 -5 1 -10 -4 -10 -6 0
-11 5 -11 10 0 6 2 10 4 10 3 0 8 -4 11 -10z"/>
<path d="M398 873 c21 -15 21 -16 5 -29 -16 -12 -16 -13 -2 -14 9 0 22 7 29
15 7 8 19 15 26 15 8 0 14 6 14 13 0 8 -17 12 -48 13 -45 2 -46 1 -24 -13z"/>
<path d="M434 795 c-30 -14 -41 -24 -29 -24 28 -1 102 34 89 42 -6 3 -32 -5
-60 -18z"/>
<path d="M1500 792 c0 -5 10 -14 23 -20 21 -10 20 -11 -10 -11 -41 -1 -42 -16
-3 -36 34 -17 50 -19 50 -5 0 6 -7 10 -15 10 -8 0 -15 5 -15 11 0 6 6 9 14 6
8 -3 20 1 26 9 10 11 6 17 -23 29 -42 17 -47 18 -47 7z"/>
<path d="M485 750 c-5 -16 -12 -19 -33 -14 -26 5 -26 5 -8 -10 10 -8 24 -13
30 -10 6 3 3 -1 -7 -9 -26 -21 -6 -29 29 -11 41 21 55 38 27 31 -16 -3 -23 -1
-23 9 0 8 5 14 10 14 6 0 10 5 10 10 0 18 -29 10 -35 -10z"/>
<path d="M1442 690 c-13 -21 -3 -27 14 -10 7 7 19 4 37 -10 14 -11 28 -16 31
-11 6 9 -44 51 -61 51 -4 0 -14 -9 -21 -20z"/>
<path d="M516 667 c-26 -21 -27 -25 -15 -45 18 -28 18 -28 59 9 l35 30 -30 -6
c-24 -5 -28 -4 -17 6 13 14 16 29 5 29 -5 0 -21 -10 -37 -23z m19 -27 c3 -5
-1 -10 -10 -10 -9 0 -13 5 -10 10 3 6 8 10 10 10 2 0 7 -4 10 -10z"/>
<path d="M1400 645 c0 -11 56 -55 70 -55 10 0 3 11 -18 30 -29 27 -52 38 -52
25z"/>
<path d="M584 597 c-16 -14 -30 -35 -31 -47 -2 -19 3 -17 31 16 22 26 35 34
40 26 5 -8 -4 -24 -23 -41 -27 -25 -28 -28 -9 -27 11 0 30 13 41 29 l21 27
-20 21 -21 20 -29 -24z"/>
<path d="M1363 597 c-28 -12 -36 -32 -18 -47 15 -12 35 -6 35 11 0 6 -4 7 -10
4 -5 -3 -10 -2 -10 3 0 14 11 21 26 15 16 -6 19 -39 4 -48 -17 -11 -11 -21 15
-23 14 -1 25 3 25 8 0 6 -5 10 -11 10 -5 0 -7 5 -4 11 10 14 -2 56 -17 62 -7
2 -23 0 -35 -6z"/>
<path d="M676 525 c-10 -15 -22 -22 -31 -19 -22 9 -18 -5 8 -27 28 -23 40 -24
33 -1 -4 10 1 27 9 38 17 22 19 34 6 34 -5 0 -16 -11 -25 -25z"/>
<path d="M1290 545 c0 -13 41 -65 52 -65 12 0 -26 63 -41 68 -6 2 -11 1 -11
-3z"/>
<path d="M981 427 c-8 -10 -7 -18 2 -31 13 -17 14 -17 31 -1 13 13 14 20 5 31
-14 17 -24 18 -38 1z"/>
<path d="M1737 1664 c-10 -10 -8 -56 3 -74 12 -20 21 -8 22 29 1 33 -13 57
-25 45z"/>
<path d="M401 1653 c6 -36 -3 -53 -25 -53 -35 0 -41 -17 -10 -24 24 -6 25 -10
19 -44 l-7 -37 25 23 c20 19 28 21 50 13 30 -12 32 -9 16 21 -9 16 -6 24 12
44 l23 25 -34 -3 c-28 -2 -37 1 -45 20 -9 20 -26 31 -24 15z"/>
<path d="M1571 1634 c-10 -22 -15 -25 -44 -19 l-32 7 23 -25 c20 -21 22 -28
12 -47 -15 -28 -8 -35 19 -19 17 12 23 10 45 -10 l25 -24 -6 35 c-5 32 -3 37
23 46 l29 10 -32 7 c-31 7 -37 16 -36 53 1 21 -13 13 -26 -14z"/>
<path d="M235 1637 c-22 -12 -18 -27 6 -27 25 0 59 17 59 30 0 11 -44 9 -65
-3z"/>
<path d="M1774 1596 c-8 -21 -1 -59 12 -63 13 -4 25 43 17 64 -7 17 -22 17
-29 -1z"/>
<path d="M203 1585 c-43 -18 -43 -37 -1 -30 37 7 60 23 52 36 -7 12 -13 11
-51 -6z"/>
<path d="M1816 1553 c-10 -10 -7 -71 4 -78 13 -8 29 33 22 57 -5 21 -16 30
-26 21z"/>
<path d="M156 1527 c-28 -21 -16 -35 20 -25 39 10 54 38 21 38 -13 0 -31 -6
-41 -13z"/>
<path d="M1845 1470 c-3 -16 -2 -37 3 -46 9 -16 11 -15 21 4 12 22 5 72 -9 72
-5 0 -11 -13 -15 -30z"/>
<path d="M150 1483 c-24 -9 -50 -35 -44 -44 6 -10 56 8 66 24 16 25 9 31 -22
20z"/>
<path d="M1882 1419 c-14 -23 -16 -56 -3 -64 12 -7 31 26 31 54 0 28 -14 33
-28 10z"/>
<path d="M109 1415 c-15 -8 -29 -22 -33 -31 -5 -13 -2 -15 21 -9 34 8 53 23
53 41 0 17 -8 17 -41 -1z"/>
<path d="M206 1354 c5 -20 1 -29 -17 -42 l-24 -17 30 -5 c24 -4 31 -11 33 -33
4 -34 18 -35 26 -2 5 20 13 25 38 25 l31 0 -20 23 c-15 16 -18 28 -13 42 14
33 11 36 -15 19 -24 -15 -27 -15 -44 0 -25 23 -32 20 -25 -10z"/>
<path d="M1701 1373 c0 -5 4 -17 9 -28 5 -14 2 -26 -13 -42 l-20 -23 31 0 c25
0 33 -5 38 -25 8 -33 22 -32 26 3 2 21 9 28 31 30 32 4 36 17 6 25 -17 5 -21
12 -17 36 5 35 2 37 -23 15 -17 -15 -20 -15 -44 0 -14 9 -25 13 -24 9z"/>
<path d="M89 1355 c-33 -18 -45 -45 -21 -45 23 0 65 38 57 51 -7 11 -4 11 -36
-6z"/>
<path d="M1900 1345 c-5 -14 -6 -35 -1 -47 8 -22 8 -22 23 7 15 31 14 65 -3
65 -5 0 -14 -11 -19 -25z"/>
<path d="M1924 1277 c-23 -47 -7 -73 21 -31 13 20 15 32 7 48 -9 20 -11 19
-28 -17z"/>
<path d="M50 1280 c-19 -19 -27 -40 -14 -40 11 0 49 23 56 34 21 31 -12 36
-42 6z"/>
<path d="M42 1224 c-12 -8 -22 -24 -22 -36 0 -19 2 -19 22 -6 12 8 28 24 36
36 12 19 12 22 0 22 -7 0 -24 -7 -36 -16z"/>
<path d="M1942 1220 c-14 -24 -16 -60 -2 -60 13 0 38 52 33 68 -7 17 -16 15
-31 -8z"/>
<path d="M27 1149 c-29 -32 -28 -60 1 -37 26 18 42 40 42 55 0 20 -13 15 -43
-18z"/>
<path d="M1964 1166 c-22 -23 -33 -52 -25 -65 6 -9 14 -6 30 15 22 27 27 49
14 57 -5 3 -13 -1 -19 -7z"/>
<path d="M20 1086 c-14 -16 -20 -31 -16 -42 5 -14 10 -13 31 10 24 26 33 56
17 56 -5 0 -19 -11 -32 -24z"/>
<path d="M1961 1084 c-21 -27 -25 -59 -6 -59 5 0 18 15 28 33 26 45 9 65 -22
26z"/>
<path d="M192 1059 c-11 -17 -20 -20 -43 -15 -33 6 -36 0 -12 -26 15 -17 15
-19 0 -36 -24 -26 -21 -32 12 -22 25 7 31 4 42 -16 17 -32 26 -30 21 5 -3 25
0 30 30 41 l33 12 -34 10 c-29 8 -33 12 -29 39 5 34 -2 37 -20 8z"/>
<path d="M1788 1052 c3 -25 0 -30 -30 -39 l-33 -10 33 -13 c30 -11 33 -16 29
-43 l-4 -31 23 28 c20 23 27 25 45 16 28 -15 36 -5 15 19 -17 18 -17 21 -1 45
l17 26 -30 -6 c-24 -5 -33 -2 -44 15 -18 29 -25 26 -20 -7z"/>
<path d="M20 1020 c-21 -21 -27 -50 -11 -50 11 0 51 48 51 61 0 15 -19 10 -40
-11z"/>
<path d="M1966 1009 c-26 -31 -33 -49 -18 -49 16 0 52 41 52 60 0 27 -4 25
-34 -11z"/>
<path d="M28 962 c-24 -27 -28 -39 -22 -56 5 -13 8 -13 24 2 22 21 34 58 22
66 -5 3 -16 -2 -24 -12z"/>
<path d="M1962 947 c-29 -31 -30 -62 -2 -47 25 14 45 49 33 61 -6 6 -18 0 -31
-14z"/>
<path d="M26 885 c-17 -26 -21 -55 -8 -55 16 0 42 36 42 58 0 29 -14 28 -34
-3z"/>
<path d="M1958 880 c-27 -21 -38 -50 -19 -50 19 0 53 37 50 54 -4 17 -6 16
-31 -4z"/>
<path d="M43 821 c-20 -31 -21 -61 -4 -61 14 0 33 47 29 71 -4 23 -4 23 -25
-10z"/>
<path d="M1935 805 c-23 -22 -33 -45 -19 -45 11 0 49 23 56 34 11 16 10 36 -2
36 -6 0 -22 -11 -35 -25z"/>
<path d="M55 754 c-13 -20 -15 -32 -7 -48 9 -20 11 -19 28 17 23 47 7 73 -21
31z"/>
<path d="M227 741 c-5 -24 -11 -29 -32 -27 -30 4 -33 -9 -4 -25 16 -8 20 -18
17 -40 -5 -33 -2 -35 23 -13 17 15 20 15 44 0 28 -19 29 -18 15 19 -9 23 -7
30 12 46 l23 18 -32 1 c-26 0 -34 5 -39 25 -8 33 -20 32 -27 -4z"/>
<path d="M1746 744 c-6 -22 -11 -25 -36 -22 -35 5 -39 -5 -10 -25 17 -12 19
-19 10 -41 -14 -38 -13 -39 15 -20 24 15 27 15 44 0 25 -23 31 -20 25 13 -5
23 -2 32 15 40 29 16 26 27 -6 27 -23 -1 -29 4 -31 27 -4 34 -18 35 -26 1z"/>
<path d="M1922 740 c-25 -23 -28 -40 -9 -40 14 0 57 41 57 53 0 14 -27 6 -48
-13z"/>
<path d="M78 694 c-15 -30 -13 -64 2 -64 5 0 12 10 16 23 12 34 12 43 4 57 -6
9 -12 5 -22 -16z"/>
<path d="M1915 684 c-32 -17 -46 -34 -39 -46 7 -12 60 18 68 38 9 24 4 25 -29
8z"/>
<path d="M102 636 c-14 -32 -16 -63 -3 -70 15 -10 35 52 24 75 -8 21 -9 20
-21 -5z"/>
<path d="M1880 617 c-14 -7 -26 -20 -28 -30 -3 -16 -1 -17 30 -4 18 7 34 21
36 30 4 20 -4 21 -38 4z"/>
<path d="M126 566 c-3 -13 -2 -35 3 -47 l8 -23 12 22 c14 27 11 64 -5 69 -7 2
-14 -7 -18 -21z"/>
<path d="M1850 557 c-14 -7 -26 -20 -28 -30 -3 -16 -1 -17 30 -4 18 7 34 21
36 30 4 20 -4 21 -38 4z"/>
<path d="M162 513 c-9 -26 2 -83 14 -71 15 15 21 66 9 81 -12 16 -14 15 -23
-10z"/>
<path d="M1813 495 c-43 -18 -43 -38 -1 -31 28 4 47 20 48 39 0 10 -10 8 -47
-8z"/>
<path d="M386 469 c5 -31 3 -36 -23 -46 l-28 -11 31 -7 c25 -6 33 -14 39 -39
l7 -31 10 28 c8 22 16 28 37 27 43 -3 47 -1 23 16 -23 15 -23 23 -4 74 5 12 0
11 -22 -3 -27 -18 -28 -18 -52 4 l-23 22 5 -34z"/>
<path d="M1593 479 c-17 -18 -24 -19 -43 -9 -28 15 -35 8 -19 -21 10 -20 9
-25 -10 -40 l-22 -18 33 -3 c23 -2 36 -10 45 -28 l12 -25 7 31 c5 26 12 33 38
38 l31 7 -25 12 c-19 10 -25 21 -25 45 0 18 0 32 0 32 0 0 -10 -9 -22 -21z"/>
<path d="M198 459 c-3 -57 7 -84 22 -59 14 22 12 56 -5 70 -13 10 -15 9 -17
-11z"/>
<path d="M1757 429 c-11 -9 -16 -18 -11 -21 15 -8 71 11 78 27 7 20 -40 16
-67 -6z"/>
<path d="M238 397 c-6 -30 9 -70 22 -62 18 11 9 85 -10 85 -4 0 -10 -11 -12
-23z"/>
<path d="M1712 378 c-7 -7 -12 -16 -12 -20 0 -13 63 1 80 18 12 12 10 14 -21
14 -19 0 -40 -5 -47 -12z"/>
<path d="M280 346 c0 -34 10 -56 25 -56 13 0 15 47 2 68 -13 20 -27 14 -27
-12z"/>
<path d="M1661 326 c-10 -11 -8 -15 6 -18 23 -5 73 11 73 23 0 15 -66 10 -79
-5z"/>
<path d="M330 296 c0 -35 10 -56 26 -56 11 0 13 8 9 32 -3 17 -8 35 -11 40
-10 16 -24 7 -24 -16z"/>
<path d="M697 302 c-15 -17 -24 -19 -44 -11 -34 13 -35 12 -17 -16 15 -24 15
-27 0 -44 -22 -25 -20 -32 8 -21 25 9 46 -3 46 -27 0 -7 5 -13 10 -13 6 0 10
11 10 25 0 16 7 28 18 31 46 15 47 16 20 26 -20 7 -28 17 -30 40 -3 30 -3 30
-21 10z"/>
<path d="M1280 293 c0 -26 -5 -34 -25 -39 -33 -8 -32 -22 3 -26 15 -2 28 -10
28 -18 1 -8 2 -24 3 -35 2 -17 4 -16 17 9 13 23 21 27 45 24 33 -5 35 -2 13
23 -14 16 -14 20 1 49 l16 31 -31 -16 c-30 -15 -32 -15 -50 7 l-19 23 -1 -32z"/>
<path d="M1621 288 c-12 -4 -19 -12 -16 -18 11 -18 85 -9 85 10 0 12 -44 18
-69 8z"/>
<path d="M380 252 c0 -17 9 -37 21 -48 21 -18 21 -18 16 11 -9 63 -37 91 -37
37z"/>
<path d="M986 239 c-5 -28 -9 -31 -36 -27 -36 5 -37 2 -5 -24 21 -16 23 -23
14 -40 -15 -27 -3 -35 21 -13 19 17 21 17 40 0 24 -22 36 -14 21 13 -9 17 -7
24 15 41 27 22 25 25 -14 21 -17 -1 -24 5 -28 29 -8 40 -20 40 -28 0z"/>
<path d="M1560 240 c-18 -11 -12 -18 21 -23 28 -5 62 10 54 24 -8 12 -55 12
-75 -1z"/>
<path d="M430 226 c0 -26 18 -63 34 -69 13 -5 14 0 9 26 -9 43 -43 78 -43 43z"/>
<path d="M1507 203 c-22 -21 22 -37 61 -22 21 8 23 12 12 19 -17 11 -64 13
-73 3z"/>
<path d="M487 176 c5 -26 39 -63 49 -54 3 3 -2 22 -10 42 -17 42 -46 50 -39
12z"/>
<path d="M1458 173 c-37 -10 -11 -33 37 -33 34 0 39 15 9 29 -14 6 -26 10 -27
10 -1 -1 -10 -3 -19 -6z"/>
<path d="M544 154 c3 -9 6 -19 6 -24 0 -12 29 -40 41 -40 13 0 1 40 -19 63
-19 21 -36 22 -28 1z"/>
<path d="M1393 143 c-37 -14 19 -45 57 -31 20 7 22 11 10 17 -24 13 -54 20
-67 14z"/>
<path d="M612 110 c5 -17 19 -35 30 -41 19 -10 20 -9 14 17 -7 27 -30 54 -47
54 -5 0 -3 -14 3 -30z"/>
<path d="M1327 113 c-13 -12 15 -33 44 -33 33 0 38 15 10 30 -22 11 -45 13
-54 3z"/>
<path d="M674 81 c14 -27 43 -47 53 -37 6 6 -17 49 -31 58 -27 18 -37 8 -22
-21z"/>
<path d="M1254 89 c-7 -11 47 -36 69 -32 24 6 21 20 -5 29 -33 11 -58 12 -64
3z"/>
<path d="M730 82 c0 -18 33 -52 51 -52 20 0 20 0 -1 30 -20 27 -50 41 -50 22z"/>
<path d="M790 70 c0 -14 46 -60 60 -60 17 0 11 20 -15 45 -25 26 -45 32 -45
15z"/>
<path d="M1190 70 c0 -15 60 -39 78 -32 11 4 9 9 -9 23 -26 20 -69 25 -69 9z"/>
<path d="M860 56 c0 -15 27 -40 53 -49 10 -4 17 -1 17 7 0 15 -27 40 -52 49
-11 4 -18 1 -18 -7z"/>
<path d="M1125 61 c-8 -14 35 -41 65 -41 l25 1 -28 24 c-29 26 -52 32 -62 16z"/>
<path d="M930 40 c13 -24 56 -47 68 -36 9 10 -44 56 -64 56 -12 0 -12 -4 -4
-20z"/>
<path d="M990 50 c0 -5 12 -18 26 -29 43 -34 76 -23 37 11 -21 18 -63 30 -63
18z"/>
<path d="M1060 52 c0 -16 36 -42 58 -42 28 0 19 23 -14 39 -30 13 -44 14 -44
3z"/>
</g>
</svg>
